<svg width="32" height="32" viewBox="0 0 32 32" fill="none" xmlns="http://www.w3.org/2000/svg">
<g id="Frame" clip-path="url(#clip0_237_490)">
<path id="Vector" d="M14.2736 16.3582C14.2736 16.7013 14.4098 17.0303 14.6524 17.2729C14.895 17.5155 15.224 17.6518 15.5671 17.6518C15.9102 17.6518 16.2392 17.5155 16.4818 17.2729C16.7243 17.0303 16.8606 16.7013 16.8606 16.3582C16.8606 16.0152 16.7243 15.6861 16.4818 15.4436C16.2392 15.201 15.9102 15.0647 15.5671 15.0647C15.224 15.0647 14.895 15.201 14.6524 15.4436C14.4098 15.6861 14.2736 16.0152 14.2736 16.3582Z" stroke="white" stroke-width="1.55224" stroke-linecap="round" stroke-linejoin="round"/>
<path id="Vector_2" d="M15.5672 9.89087C14.288 9.89087 13.0375 10.2702 11.9739 10.9809C10.9103 11.6915 10.0813 12.7017 9.59181 13.8835C9.10229 15.0653 8.97421 16.3657 9.22376 17.6203C9.47332 18.8749 10.0893 20.0273 10.9938 20.9319C11.8983 21.8364 13.0508 22.4524 14.3054 22.7019C15.56 22.9515 16.8604 22.8234 18.0422 22.3339C19.224 21.8443 20.2341 21.0154 20.9448 19.9518C21.6555 18.8882 22.0348 17.6377 22.0348 16.3585" stroke="white" stroke-width="1.55224" stroke-linecap="round" stroke-linejoin="round"/>
<path id="Vector_3" d="M16.8607 4.78768C14.4626 4.51864 12.0402 5.00147 9.92845 6.16939C7.81673 7.33731 6.12014 9.13259 5.07336 11.3069C4.02657 13.4812 3.68133 15.9271 4.08538 18.3062C4.48944 20.6853 5.62282 22.88 7.32876 24.5868C9.0347 26.2936 11.2289 27.4281 13.6078 27.8333C15.9867 28.2386 18.4327 27.8946 20.6075 26.8489C22.7824 25.8032 24.5785 24.1075 25.7475 21.9964C26.9165 19.8853 27.4005 17.463 27.1327 15.0648" stroke="white" stroke-width="1.55224" stroke-linecap="round" stroke-linejoin="round"/>
<path id="Vector_4" d="M19.4478 8.59715V12.4777H23.3284L27.2089 8.59715H23.3284V4.71655L19.4478 8.59715Z" stroke="white" stroke-width="1.55224" stroke-linecap="round" stroke-linejoin="round"/>
<path id="Vector_5" d="M19.4477 12.4778L15.5671 16.3584" stroke="white" stroke-width="1.55224" stroke-linecap="round" stroke-linejoin="round"/>
</g>
<defs>
<clipPath id="clip0_237_490">
<rect width="31.0448" height="31.0448" fill="white" transform="translate(0.0447998 0.835938)"/>
</clipPath>
</defs>
</svg>
