<svg width="179" height="112" viewBox="0 0 179 112" fill="none" xmlns="http://www.w3.org/2000/svg">
<g id="Group 18">
<path id="Vector" d="M173.627 83.857C164.727 85.3945 155.673 82.6722 147.275 79.498C147.219 79.4786 147.161 79.4708 147.102 79.4751C147.044 79.4795 146.987 79.4959 146.935 79.5234C146.883 79.5508 146.838 79.5887 146.801 79.6346C146.765 79.6805 146.739 79.7334 146.724 79.7901C146.681 79.9574 146.693 80.134 146.759 80.2938C146.824 80.4535 146.94 80.588 147.087 80.6773C153.317 84.475 160.254 86.9668 167.477 88.0011C131.376 98.8737 82.2646 101.916 57.4167 68.1624C68.2673 66.4596 79.421 62.9327 87.3234 54.854C92.058 50.3186 95.3021 44.4511 96.6255 38.0297C99.932 22.3682 88.4201 6.22725 72.4169 6.1997C43.3753 6.1501 33.4284 42.1462 46.7258 66.4375C31.3619 68.1514 15.7445 67.8318 0.358499 66.3218C0.275344 66.3124 0.191825 66.3361 0.12588 66.3876C0.059936 66.4391 0.0168248 66.5144 0.00581024 66.5974C-0.00435701 66.6647 -0.00115688 66.7333 0.0152238 66.7994C0.0316045 66.8655 0.0608449 66.9276 0.101276 66.9824C0.141708 67.0372 0.192538 67.0834 0.250857 67.1185C0.309176 67.1536 0.373842 67.1769 0.441159 67.187C16.2349 69.5511 32.2601 70.5265 48.2192 69.2811C71.6399 109.471 128.274 108.743 165.46 90.9934C159.751 93.7212 156.682 102.99 156.792 107.856C156.783 108.014 156.835 108.168 156.938 108.288C157.041 108.407 157.186 108.481 157.343 108.495C157.487 108.497 157.629 108.459 157.753 108.387C157.877 108.314 157.979 108.209 158.048 108.082C162.297 100.323 167.995 94.6084 176.002 88.5797C179.287 86.1054 180.466 82.6777 173.627 83.857ZM51.4926 56.7938C43.7059 38.3934 54.0606 10.8287 73.3537 12.3386C84.535 13.2093 92.9168 23.2554 91.9579 34.4312C91.3885 40.9242 88.5838 47.0184 84.0225 51.6743C76.6326 59.5932 65.8646 63.1256 55.4273 65.126C53.8534 62.4802 52.5358 59.6901 51.4926 56.7938Z" fill="white"/>
<path id="Vector_2" d="M55.295 1.1188C53.3961 2.27353 51.399 3.25827 49.3268 4.06153C49.2362 4.09659 49.1365 4.10072 49.0433 4.07329C48.9501 4.04585 48.8686 3.9884 48.8114 3.90984C48.7542 3.83128 48.7245 3.73601 48.7271 3.63888C48.7296 3.54174 48.7642 3.44816 48.8254 3.37269C49.6036 2.46544 50.5576 1.72524 51.6297 1.19675C52.7019 0.668257 53.87 0.362412 55.0635 0.297689C55.161 0.295811 55.2564 0.326318 55.3347 0.384434C55.413 0.442549 55.4699 0.525002 55.4963 0.618869C55.5228 0.712735 55.5174 0.812722 55.4809 0.903184C55.4445 0.993646 55.3791 1.06948 55.295 1.1188Z" fill="white"/>
<path id="Vector_3" d="M44.494 7.62694C37.33 15.9426 32.0287 26.6445 31.2186 38.6193C31.2186 38.8673 30.8494 38.8452 30.7888 38.6193C27.7799 26.8374 34.5857 13.2699 44.2184 7.31834C44.2605 7.2978 44.3082 7.29157 44.3541 7.3006C44.4001 7.30963 44.4418 7.33341 44.473 7.36834C44.5042 7.40328 44.5231 7.44744 44.5269 7.49412C44.5307 7.5408 44.5191 7.58744 44.494 7.62694Z" fill="white"/>
<path id="Vector_4" d="M115.406 109.873C120.207 110.31 125.047 109.956 129.734 108.826C129.767 108.822 129.8 108.829 129.828 108.846C129.856 108.863 129.878 108.889 129.889 108.92C129.9 108.951 129.9 108.985 129.888 109.016C129.877 109.047 129.856 109.074 129.828 109.091C125.579 111.648 119.941 111.956 115.334 110.154C115.305 110.139 115.281 110.114 115.267 110.083C115.253 110.052 115.25 110.018 115.258 109.985C115.267 109.953 115.286 109.924 115.313 109.903C115.34 109.883 115.372 109.872 115.406 109.873Z" fill="white"/>
</g>
</svg>
